<?xml version="1.0" standalone="no"?>
<!DOCTYPE svg PUBLIC "-//W3C//DTD SVG 20010904//EN"
 "http://www.w3.org/TR/2001/REC-SVG-20010904/DTD/svg10.dtd">
<svg version="1.0" xmlns="http://www.w3.org/2000/svg"
 width="450.000000pt" height="450.000000pt" viewBox="0 0 450.000000 450.000000"
 preserveAspectRatio="xMidYMid meet">
<metadata>
Created by potrace 1.11, written by Peter Selinger 2001-2013
</metadata>
<g transform="translate(0.000000,450.000000) scale(0.100000,-0.100000)"
fill="#000000" stroke="none">
<path d="M0 2250 l0 -2250 2250 0 2250 0 0 2250 0 2250 -2250 0 -2250 0 0
-2250z m2058 585 c-5 -282 -5 -294 13 -285 10 6 20 14 23 19 12 19 119 72 173
86 260 68 497 -90 570 -380 24 -97 24 -325 0 -415 -29 -109 -93 -224 -161
-293 -185 -187 -433 -195 -626 -21 l-39 36 -7 -29 c-3 -15 -10 -45 -15 -65
l-10 -38 -139 0 -140 0 0 840 0 840 181 0 182 0 -5 -295z m-758 -24 l0 -160
-301 -188 c-166 -103 -310 -195 -321 -203 -18 -14 0 -27 299 -215 l318 -200 3
-157 c1 -93 -1 -158 -7 -158 -5 0 -213 132 -463 294 l-453 294 -2 128 -3 129
458 297 c251 163 460 297 465 297 4 1 7 -71 7 -158z m2373 -141 l457 -295 -3
-129 -2 -128 -453 -294 c-250 -162 -458 -294 -463 -294 -6 0 -8 65 -7 157 l3
158 313 197 c172 108 313 200 313 205 0 4 -141 96 -313 204 l-313 197 -3 162
c-1 89 1 160 6 158 5 -1 214 -136 465 -298z"/>
<path d="M2208 2367 c-25 -8 -69 -31 -97 -52 l-51 -39 0 -246 0 -247 48 -26
c118 -64 221 -58 297 17 54 55 76 116 82 240 15 273 -89 406 -279 353z"/>
</g>
</svg>
