<?xml version="1.0" encoding="UTF-8" standalone="no"?>
<svg width="493px" height="365px" viewBox="0 0 493 365" version="1.1" xmlns="http://www.w3.org/2000/svg" xmlns:xlink="http://www.w3.org/1999/xlink" xmlns:sketch="http://www.bohemiancoding.com/sketch/ns">
    <!-- Generator: Sketch 3.0.3 (7891) - http://www.bohemiancoding.com/sketch -->
    <title>bb.radio</title>
    <desc>Created with Sketch.</desc>
    <defs></defs>
    <g id="Page-1" stroke="none" stroke-width="1" fill="none" fill-rule="evenodd" sketch:type="MSPage">
        <g id="Events" sketch:type="MSLayerGroup" transform="translate(1.000000, 1.000000)">
            <g id="Emitter" transform="translate(47.000000, 189.000000)" stroke="#852D2D" fill="#CA5F5F" sketch:type="MSShapeGroup">
                <circle id="Oval-2" cx="38" cy="38" r="38"></circle>
            </g>
            <g id="Listeners" transform="translate(377.000000, 91.000000)" stroke="#3E6D71" fill="#78ABD0" sketch:type="MSShapeGroup">
                <circle id="Oval-4" cx="76" cy="138" r="38"></circle>
                <circle id="Oval-6" cx="38" cy="234" r="38"></circle>
                <circle id="Oval-5" cx="38" cy="38" r="38"></circle>
            </g>
            <g id="Information" transform="translate(135.000000, 115.000000)" fill="#4B9C69">
                <path d="M0.5,96.5 L229.5,21.5" id="Line" stroke="#4B9C69" stroke-linecap="square" sketch:type="MSShapeGroup"></path>
                <path id="Line-decoration-1" d="M228.579246,21.8015569 C224.660192,21.9802107 221.301004,22.1333425 217.38195,22.3119962 C218.035561,24.3076897 218.595799,26.018284 219.249411,28.0139774 C222.514853,25.8396302 225.313804,23.9759041 228.579246,21.8015569 C228.579246,21.8015569 228.579246,21.8015569 228.579246,21.8015569 Z" stroke="#4B9C69" stroke-linecap="square"></path>
                <path d="M2.5,132.468838 L230.5,197.499996" id="Line-3" stroke="#4B9C69" stroke-linecap="square" sketch:type="MSShapeGroup"></path>
                <path id="Line-3-decoration-1" d="M230.410646,197.47451 C227.063615,195.42798 224.194732,193.673812 220.847701,191.627282 C220.271701,193.646743 219.777987,195.37771 219.201988,197.397171 C223.125018,197.42424 226.487616,197.447442 230.410646,197.47451 C230.410646,197.47451 230.410646,197.47451 230.410646,197.47451 Z" stroke="#4B9C69" stroke-linecap="square"></path>
                <path d="M5.5,113.5 L267.5,113.5" id="Line-2" stroke="#4B9C69" stroke-linecap="square" sketch:type="MSShapeGroup"></path>
                <path id="Line-2-decoration-1" d="M267.5,113.5 C263.72,112.45 260.48,111.55 256.7,110.5 C256.7,112.6 256.7,114.4 256.7,116.5 C260.48,115.45 263.72,114.55 267.5,113.5 C267.5,113.5 267.5,113.5 267.5,113.5 Z" stroke="#4B9C69" stroke-linecap="square"></path>
                <text id="information-2" sketch:type="MSTextLayer" transform="translate(140.628906, 36.927832) rotate(-17.000000) translate(-140.628906, -36.927832) " font-family="Arial" font-size="19" font-weight="normal">
                    <tspan x="49.6289062" y="42.9278323">information</tspan>
                </text>
            </g>
            <g id="Header" font-weight="normal" font-family="Arial" sketch:alignment="middle" sketch:type="MSTextLayer">
                <text id="on" font-size="27" fill="#444444">
                    <tspan x="390.983887" y="60">on</tspan>
                </text>
                <text id="&quot;Listeners”" font-size="24" font-style="italic" fill="#9A9A9A">
                    <tspan x="349.052734" y="22">"Listeners”</tspan>
                </text>
                <text id="trigger" font-size="27" fill="#444444">
                    <tspan x="46.7346191" y="60">trigger</tspan>
                </text>
                <text id="“Emitter”" font-size="24" font-style="italic" fill="#9A9A9A">
                    <tspan x="39.0039062" y="22">“Emitter”</tspan>
                </text>
            </g>
        </g>
    </g>
</svg>